<?xml version="1.0" encoding="utf-8"?>
<!-- Generator: Adobe Illustrator 21.1.0, SVG Export Plug-In . SVG Version: 6.00 Build 0)  -->
<svg version="1.1" id="图层_1" xmlns="http://www.w3.org/2000/svg" xmlns:xlink="http://www.w3.org/1999/xlink" x="0px" y="0px"
	 viewBox="0 0 200 200" style="enable-background:new 0 0 200 200;" xml:space="preserve">
<style type="text/css">
	.st0{fill:#101317;}
</style>
<path class="st0" d="M455.3,34.7H296.9c-6.4,0-11.4,5.7-10.6,12.1L302.9,180c0.4,3.9,2.8,7.1,6.4,8.5l62.5,25c2.5,1,5.7,1,8.2,0
	l62.5-25c3.6-1.4,6-4.6,6.4-8.5l16.7-133.2C466.7,40.1,461.7,34.7,455.3,34.7L455.3,34.7z M454.6,51.1L439,175
	c-0.4,1.8-1.4,3.6-3.2,4.3l-57.6,22.8c-1.3,0.7-2.9,0.7-4.2,0l-57.5-22.8c-1.8-0.7-2.8-2.5-3.2-4.3l-15.6-124c-0.3-3,1.8-5.7,4.7-6
	c0.2,0,0.4,0,0.6,0h146.4C452.5,45.4,455,48.2,454.6,51.1L454.6,51.1z"/>
<path d="M373.8,134.5H323l14.4-63.4h16.7l-12.3,56.7H376L373.8,134.5z"/>
<path d="M389.2,169.4h-16.7l14.2-63.2h50.9l-1.3,7.1h-34.2l-3,12.1h32.1l-1.7,7.1h-32.1L389.2,169.4z"/>
</svg>
